<svg width="30" height="30" version="1.1" xmlns="http://www.w3.org/2000/svg" desc="Created with imagetracer.js version 1.2.6" ><path fill="rgb(255,255,255)" stroke="rgb(255,255,255)" stroke-width="1" opacity="0.8470588235294118" d="M 5.5 6 L 6.5 8 L 5.5 6 Z " /><path fill="rgb(255,255,255)" stroke="rgb(255,255,255)" stroke-width="1" opacity="0.8470588235294118" d="M 24.5 6 L 23.5 8 L 24.5 6 Z " /><path fill="rgb(255,255,255)" stroke="rgb(255,255,255)" stroke-width="1" opacity="0.8470588235294118" d="M 8.5 10 L 10.5 13 L 8.5 10 Z " /><path fill="rgb(255,255,255)" stroke="rgb(255,255,255)" stroke-width="1" opacity="0.8470588235294118" d="M 21.5 10 L 19.5 13 L 21.5 10 Z " /><path fill="rgb(255,255,255)" stroke="rgb(255,255,255)" stroke-width="1" opacity="1" d="M 4 4 L 25.5 4 L 26 6 L 23 7.5 L 17.5 15 Q 12.3 16.3 11 13.5 L 5.5 6 Q 2.9 6.7 4 4 Z " /><path fill="rgb(255,255,255)" stroke="rgb(255,255,255)" stroke-width="1" opacity="1" d="M 12 17 L 18 17 L 18 24 L 12 25 L 12 17 Z " /><path fill="rgb(255,255,255)" stroke="rgb(255,255,255)" stroke-width="1" opacity="0.24705882352941178" d="M 4.5 6 L 7.5 10 L 4.5 6 Z " /><path fill="rgb(255,255,255)" stroke="rgb(255,255,255)" stroke-width="1" opacity="0.24705882352941178" d="M 25.5 6 L 22.5 10 L 25.5 6 Z " /><path fill="rgb(255,255,255)" stroke="rgb(255,255,255)" stroke-width="1" opacity="0.24705882352941178" d="M 8.5 11 L 11.5 15 L 8.5 11 Z " /><path fill="rgb(255,255,255)" stroke="rgb(255,255,255)" stroke-width="1" opacity="0.24705882352941178" d="M 21.5 11 L 18.5 15 L 21.5 11 Z " /><path fill="rgb(0,0,0)" stroke="rgb(0,0,0)" stroke-width="1" opacity="0" d="M 0 0 L 30 0 L 30 30 L 0 30 L 0 0 Z M 3 4 L 8 12 Q 10 17 19 15 L 27 6 L 27 4 L 3 4 Z M 12 17 L 12 26 L 18 25 L 18 17 L 12 17 Z " /></svg>